<?xml version="1.0" standalone="no"?>
<!DOCTYPE svg PUBLIC "-//W3C//DTD SVG 20010904//EN"
 "http://www.w3.org/TR/2001/REC-SVG-20010904/DTD/svg10.dtd">
<svg version="1.0" xmlns="http://www.w3.org/2000/svg"
 width="236.000000pt" height="236.000000pt" viewBox="0 0 236.000000 236.000000"
 preserveAspectRatio="xMidYMid meet">
<metadata>
Created by potrace 1.11, written by Peter Selinger 2001-2013
</metadata>
<g transform="translate(0.000000,236.000000) scale(0.100000,-0.100000)"
fill="#000000" stroke="none">
<path d="M1070 1932 c-273 -229 -632 -552 -624 -561 8 -9 302 209 556 411
l187 149 150 -120 c237 -189 554 -425 589 -439 20 -7 -115 122 -272 262 -134
119 -454 390 -464 393 -4 1 -59 -42 -122 -95z"/>
<path d="M1020 1747 c-173 -149 -403 -367 -396 -374 6 -6 322 217 392 276 6 5
48 39 93 75 l81 66 118 -94 c116 -93 395 -296 434 -317 68 -37 -119 145 -386
374 -88 75 -163 137 -166 137 -3 -1 -79 -65 -170 -143z"/>
<path d="M1205 1530 c-22 -24 -47 -25 -81 -4 -23 16 -27 15 -65 -1 -49 -23
-89 -68 -89 -101 0 -56 56 -134 83 -117 6 4 3 -4 -6 -18 -9 -13 -17 -37 -18
-54 0 -22 -11 -39 -40 -64 l-40 -34 -22 21 c-20 21 -20 23 -4 57 22 46 22 48
-7 30 -13 -9 -29 -29 -36 -45 -16 -39 1 -84 42 -108 19 -11 28 -23 26 -37 -2
-16 -11 -20 -43 -20 -36 0 -42 4 -57 35 -15 30 -18 64 -18 222 l0 188 -40 -28
-39 -27 -1 -175 c0 -163 2 -179 23 -220 44 -87 33 -85 412 -85 321 0 335 1
361 21 67 49 69 57 72 272 l3 197 -36 23 c-19 12 -37 22 -39 22 -3 0 -6 -92
-8 -204 -3 -184 -5 -206 -22 -225 -20 -22 -60 -28 -71 -11 -3 5 6 17 20 26 27
18 34 61 13 82 -19 19 -30 14 -18 -9 9 -15 8 -24 -1 -35 -10 -13 -15 -12 -34
6 -32 30 -37 69 -14 99 23 29 25 74 3 95 -29 30 -51 37 -78 25 -20 -9 -29 -9
-40 0 -22 18 -36 5 -36 -33 0 -24 7 -38 30 -54 28 -21 28 -23 16 -54 -8 -18
-17 -53 -21 -78 -4 -25 -14 -54 -21 -65 -14 -19 -14 -19 -14 4 0 14 -7 25 -19
28 -15 4 -19 17 -23 81 -4 48 -13 94 -27 122 -29 63 -27 76 22 107 37 25 42
33 45 72 4 48 -4 91 -17 91 -4 0 -16 -9 -26 -20z"/>
<path d="M740 710 c0 -47 -1 -50 -19 -40 -79 42 -166 -41 -140 -134 17 -61 81
-97 130 -72 16 8 29 10 29 5 0 -5 16 -9 35 -9 l35 0 0 150 0 150 -35 0 -35 0
0 -50z m-20 -100 c24 -24 25 -48 4 -78 -29 -41 -74 -22 -74 32 0 28 24 66 42
66 4 0 17 -9 28 -20z"/>
<path d="M327 608 c-32 -73 -57 -136 -57 -140 0 -5 16 -8 36 -8 31 0 37 4 47
30 11 28 15 30 64 30 48 0 54 -2 68 -30 13 -25 22 -30 50 -30 19 0 35 3 35 7
0 4 -26 67 -57 140 l-58 133 -36 0 -36 0 -56 -132z m107 7 c4 -14 11 -25 16
-25 6 0 10 -4 10 -10 0 -5 -16 -10 -36 -10 -31 0 -35 3 -29 18 4 9 10 25 12
35 7 25 20 21 27 -8z"/>
<path d="M1390 711 c0 -16 -6 -31 -15 -35 -8 -3 -15 -15 -15 -26 0 -11 7 -20
15 -20 12 0 15 -13 15 -61 0 -33 4 -69 10 -79 20 -38 103 -45 125 -10 10 16
-14 40 -38 37 -20 -2 -22 3 -25 56 -3 55 -2 57 23 57 20 0 25 5 25 25 0 20 -5
25 -25 25 -21 0 -25 5 -25 30 0 28 -3 30 -35 30 -32 0 -35 -3 -35 -29z"/>
<path d="M1550 645 c0 -143 29 -185 127 -185 44 0 58 5 85 29 l33 29 3 111 4
111 -36 0 -36 0 0 -85 c0 -123 -30 -168 -83 -125 -19 16 -22 29 -25 114 l-4
96 -34 0 -34 0 0 -95z"/>
<path d="M1850 600 l0 -140 40 0 c42 0 45 4 40 58 -1 20 3 22 48 22 85 0 133
66 102 141 -19 44 -56 59 -150 59 l-80 0 0 -140z m158 45 c4 -33 -18 -55 -55
-55 -21 0 -23 5 -23 46 l0 45 38 -3 c33 -3 37 -6 40 -33z"/>
<path d="M894 661 c-59 -36 -70 -124 -20 -170 52 -49 134 -45 180 10 82 97
-49 228 -160 160z m96 -51 c11 -11 20 -28 20 -38 0 -26 -29 -62 -50 -62 -21 0
-50 36 -50 62 0 19 34 58 50 58 6 0 19 -9 30 -20z"/>
<path d="M1117 673 c-4 -3 -7 -71 -7 -150 l0 -143 35 0 35 0 0 51 c0 44 2 50
15 39 8 -6 31 -12 51 -12 43 0 78 30 94 78 30 89 -62 176 -141 134 -13 -7 -19
-7 -19 0 0 11 -53 14 -63 3z m135 -60 c20 -18 24 -73 6 -91 -19 -19 -46 -14
-63 12 -18 28 -11 71 14 86 21 13 22 13 43 -7z"/>
</g>
</svg>
